<svg xmlns="http://www.w3.org/2000/svg" width="19" height="14" viewBox="0 0 19 14">
    <g fill="none" fill-rule="evenodd">
        <path d="M-3-5h24v24H-3z"/>
        <path fill="#E70" fill-rule="nonzero" d="M5.445.351L.298 5.904c-.194.216-.298.49-.298.78 0 .15.026.294.081.429.052.127.12.238.21.342L5.45 13.02c.417.446 1.09.45 1.508.01l.086-.107a1.177 1.177 0 0 0-.076-1.467l-3.412-3.66 13.887.001c.588 0 1.057-.505 1.057-1.12l-.006-.122c-.057-.559-.502-.999-1.05-.999H3.555L6.96 1.899A1.17 1.17 0 0 0 6.952.324 1.01 1.01 0 0 0 5.445.35z"/>
    </g>
</svg>
